<svg xmlns="http://www.w3.org/2000/svg" height="48" viewBox="0 -960 960 960" width="48"><path d="M39.913-258.348v-443.304h76.957v443.304H39.913Zm138.435 85.088v-447.978q0-67.733 49.186-116.617 49.187-48.885 117.988-48.885h270.521q67.841 0 116.725 48.885 48.884 48.884 48.884 116.617v447.978H178.348Zm665.782-85.088v-443.304h76.957v443.304H844.13ZM480-480ZM255.304-250.217h187v-192.087h-85.652v-76.392h85.652v-191.087h-96.782q-37.521 0-63.869 25.837-26.349 25.838-26.349 62.816v370.913Zm263.392 0h186V-621.13q0-36.978-25.838-62.816-25.837-25.837-62.815-25.837h-97.347v191.087h85.652v76.392h-85.652v192.087Z"/></svg>